<svg width="418.66249999999997px" height="83.6px" xmlns="http://www.w3.org/2000/svg" viewBox="40.66875000000002 33.2 418.66249999999997 83.6" style="background: rgba(0, 0, 0, 0);" preserveAspectRatio="xMidYMid"><defs><linearGradient id="editing-gradow-gradient" x1="0" x2="1" y1="0.5" y2="0.5" gradientUnits="objectBoundingBox"><stop offset="0" stop-color="#f0f"></stop><stop offset="1" stop-color="#0ff"></stop></linearGradient><filter id="editing-gradow-filter" x="-100%" y="-100%" width="300%" height="300%"><feFlood flood-color="#fffcd9" result="flood"></feFlood><feComposite operator="in" in2="SourceAlpha" in="flood" result="shadow"></feComposite><feOffset dx="-4" dy="-4" in="SourceGraphic" result="offset-1"></feOffset><feOffset dx="4" dy="4" in="shadow" result="offset-2"></feOffset><feMerge><feMergeNode in="offset-2"></feMergeNode><feMergeNode in="offset-1"></feMergeNode></feMerge></filter></defs><g filter="url(#editing-gradow-filter)"><g transform="translate(103.67997527122498, 93.42000198364258)"><path d="M8.96 0L0.24 0L5.32-26.40L14.12-26.40L8.96 0ZM43.80 0.80L43.80 0.80L43.80 0.80Q38.96 0.80 38.96-2.96L38.96-2.96L38.96-2.96Q38.96-4.60 39.66-7.78L39.66-7.78L39.66-7.78Q40.36-10.96 40.60-12.24L40.60-12.24L40.60-12.24Q41.16-15.16 41.16-16.08L41.16-16.08L41.16-16.08Q41.16-18.12 39.64-18.12L39.64-18.12L39.64-18.12Q38.64-18.12 37.68-16.74L37.68-16.74L37.68-16.74Q36.72-15.36 36.28-12.60L36.28-12.60L33.80 0L26 0.80L28.16-10.08L28.16-10.08Q28.52-11.88 28.84-13.92L28.84-13.92L28.84-13.92Q29.16-15.96 29.16-16.28L29.16-16.28L29.16-16.28Q29.16-18.12 27.80-18.12L27.80-18.12L27.80-18.12Q26.88-18.12 25.88-16.76L25.88-16.76L25.88-16.76Q24.88-15.40 24.32-12.60L24.32-12.60L21.88 0L14 0.80L18.20-20.40L24.72-21.20L24.04-17.16L24.04-17.16Q25.08-19.32 27-20.26L27-20.26L27-20.26Q28.92-21.20 31.92-21.20L31.92-21.20L31.92-21.20Q33.64-21.20 34.76-20.36L34.76-20.36L34.76-20.36Q35.88-19.52 36.24-18.16L36.24-18.16L36.24-18.16Q36.92-19.56 38.66-20.38L38.66-20.38L38.66-20.38Q40.40-21.20 42.54-21.20L42.54-21.20L42.54-21.20Q44.68-21.20 45.74-20.74L45.74-20.74L45.74-20.74Q46.80-20.28 47.44-19.52L47.44-19.52L47.44-19.52Q48.52-18.12 48.52-15.56L48.52-15.56L48.52-15.56Q48.52-13.04 47.44-7.80L47.44-7.80L47.44-7.80Q46.88-5.24 46.88-4.30L46.88-4.30L46.88-4.30Q46.88-3.36 47.42-2.80L47.42-2.80L47.42-2.80Q47.96-2.24 48.76-2.16L48.76-2.16L48.76-2.16Q48.36-0.80 46.98 0L46.98 0L46.98 0Q45.60 0.80 43.80 0.80ZM53.58-1.20L53.58-1.20L53.58-1.20Q52.64-2.24 52.22-3.88L52.22-3.88L52.22-3.88Q51.80-5.52 51.80-8.20L51.80-8.20L51.80-8.20Q51.80-10.88 52.72-13.32L52.72-13.32L52.72-13.32Q53.64-15.76 55.32-17.52L55.32-17.52L55.32-17.52Q58.76-21.20 64.44-21.20L64.44-21.20L64.44-21.20Q66.48-21.20 67.96-20.52L67.96-20.52L74.80-21.20L71.84-5.60L71.84-5.60Q71.72-5.12 71.72-4.24L71.72-4.24L71.72-4.24Q71.72-3.36 72.26-2.80L72.26-2.80L72.26-2.80Q72.80-2.24 73.60-2.16L73.60-2.16L73.60-2.16Q73.20-0.80 71.74 0L71.74 0L71.74 0Q70.28 0.80 68.64 0.80L68.64 0.80L68.64 0.80Q67 0.80 65.90 0.18L65.90 0.18L65.90 0.18Q64.80-0.44 64.48-1.48L64.48-1.48L64.48-1.48Q63.84-0.48 62.48 0.16L62.48 0.16L62.48 0.16Q61.12 0.80 59.30 0.80L59.30 0.80L59.30 0.80Q57.48 0.80 56 0.32L56 0.32L56 0.32Q54.52-0.16 53.58-1.20ZM62.02-17.44L62.02-17.44L62.02-17.44Q61.56-16.72 61.16-15.50L61.16-15.50L61.16-15.50Q60.76-14.28 60.10-11.02L60.10-11.02L60.10-11.02Q59.44-7.76 59.44-5.44L59.44-5.44L59.44-5.44Q59.44-3.12 59.80-2.44L59.80-2.44L59.80-2.44Q60.16-1.76 60.80-1.76L60.80-1.76L60.80-1.76Q62.08-1.76 63.02-2.98L63.02-2.98L63.02-2.98Q63.96-4.20 64.32-6.36L64.32-6.36L66.44-18.08L66.44-18.08Q65.60-18.80 64.62-18.80L64.62-18.80L64.62-18.80Q63.64-18.80 63.06-18.48L63.06-18.48L63.06-18.48Q62.48-18.16 62.02-17.44ZM79.64-16.72L79.64-16.72L79.64-16.72Q81-18.64 83.06-19.92L83.06-19.92L83.06-19.92Q85.12-21.20 87.64-21.20L87.64-21.20L87.64-21.20Q90.16-21.20 91.36-20.40L91.36-20.40L99.20-21.20L96.48-5.84L96.48-5.84Q95.08 2 92.12 5.08L92.12 5.08L92.12 5.08Q89.28 8 83.76 8L83.76 8L83.76 8Q79.56 8 77.16 6.68L77.16 6.68L77.16 6.68Q74.76 5.36 74.76 3.16L74.76 3.16L74.76 3.16Q74.76 1.52 76 0.58L76 0.58L76 0.58Q77.24-0.36 79.16-0.36L79.16-0.36L79.16-0.36Q80.84-0.36 82.12 0.40L82.12 0.40L82.12 0.40Q82.88 0.80 83.24 1.36L83.24 1.36L83.24 1.36Q82.32 2.16 82.32 3.48L82.32 3.48L82.32 3.48Q82.32 5.20 83.92 5.20L83.92 5.20L83.92 5.20Q86.60 5.20 88.12-1.12L88.12-1.12L88.12-1.12Q88.56-2.84 88.92-4.56L88.92-4.56L88.92-4.56Q87.12-2.36 83.04-2.36L83.04-2.36L83.04-2.36Q80.20-2.36 78.56-3.72L78.56-3.72L78.56-3.72Q76.92-5.08 76.92-8.28L76.92-8.28L76.92-8.28Q76.92-10.28 77.60-12.54L77.60-12.54L77.60-12.54Q78.28-14.80 79.64-16.72ZM84.84-8.16L84.84-8.16L84.84-8.16Q84.84-5.44 86.24-5.44L86.24-5.44L86.24-5.44Q87.20-5.44 88.12-6.48L88.12-6.48L88.12-6.48Q88.84-7.32 89.12-8.56L89.12-8.56L91.16-18.84L91.16-18.84Q90.96-18.88 90.76-18.96L90.76-18.96L90.76-18.96Q90.36-19.12 89.84-19.12L89.84-19.12L89.84-19.12Q87.40-19.12 85.96-15.12L85.96-15.12L85.96-15.12Q84.84-12 84.84-8.16ZM116.96-6.76L116.96-6.76L116.96-6.76Q117.96-6.08 117.96-4.58L117.96-4.58L117.96-4.58Q117.96-3.08 117.20-2.12L117.20-2.12L117.20-2.12Q116.44-1.16 115.20-0.52L115.20-0.52L115.20-0.52Q112.64 0.80 109.88 0.80L109.88 0.80L109.88 0.80Q107.12 0.80 105.50 0.20L105.50 0.20L105.50 0.20Q103.88-0.40 102.80-1.52L102.80-1.52L102.80-1.52Q100.68-3.64 100.68-7.52L100.68-7.52L100.68-7.52Q100.68-13.56 103.96-17.24L103.96-17.24L103.96-17.24Q107.48-21.20 113.60-21.20L113.60-21.20L113.60-21.20Q117.40-21.20 119.28-19.60L119.28-19.60L119.28-19.60Q120.68-18.40 120.68-16.44L120.68-16.44L120.68-16.44Q120.68-9.40 108.52-9.40L108.52-9.40L108.52-9.40Q108.36-8.36 108.36-7.48L108.36-7.48L108.36-7.48Q108.36-5.64 109.18-4.94L109.18-4.94L109.18-4.94Q110.00-4.24 111.52-4.24L111.52-4.24L111.52-4.24Q113.04-4.24 114.66-4.94L114.66-4.94L114.66-4.94Q116.28-5.64 116.96-6.76ZM108.80-11.12L108.80-11.12L108.80-11.12Q111.64-11.12 113.28-12.88L113.28-12.88L113.28-12.88Q114.92-14.56 114.92-17.24L114.92-17.24L114.92-17.24Q114.92-18.16 114.58-18.66L114.58-18.66L114.58-18.66Q114.24-19.16 113.56-19.16L113.56-19.16L113.56-19.16Q112.88-19.16 112.30-18.90L112.30-18.90L112.30-18.90Q111.72-18.64 111.12-17.76L111.12-17.76L111.12-17.76Q109.64-15.76 108.80-11.12ZM134-14.04L134-14.04L134-14.04Q134.56-15.52 134.56-16.80L134.56-16.80L134.56-16.80Q134.56-19.16 132.64-19.16L132.64-19.16L132.64-19.16Q131.64-19.16 130.82-18.26L130.82-18.26L130.82-18.26Q130-17.36 130-16.24L130-16.24L130-16.24Q130-15.44 130.64-14.80L130.64-14.80L130.64-14.80Q131.56-13.92 133.92-12.48L133.92-12.48L133.92-12.48Q136.28-11.04 137.18-9.86L137.18-9.86L137.18-9.86Q138.08-8.68 138.08-7.06L138.08-7.06L138.08-7.06Q138.08-5.44 137.30-3.96L137.30-3.96L137.30-3.96Q136.52-2.48 135.12-1.44L135.12-1.44L135.12-1.44Q132.12 0.80 127.32 0.80L127.32 0.80L127.32 0.80Q124.72 0.80 122.72-0.56L122.72-0.56L122.72-0.56Q120.72-1.88 120.72-3.44L120.72-3.44L120.72-3.44Q120.72-5 121.86-5.92L121.86-5.92L121.86-5.92Q123.00-6.84 124.68-6.84L124.68-6.84L124.68-6.84Q126.36-6.84 127.40-6.20L127.40-6.20L127.40-6.20Q126.88-4.88 126.88-4L126.88-4L126.88-4Q126.88-1.36 129.12-1.36L129.12-1.36L129.12-1.36Q130.08-1.36 130.72-1.96L130.72-1.96L130.72-1.96Q131.36-2.56 131.36-3.60L131.36-3.60L131.36-3.60Q131.36-5.64 127.92-7.80L127.92-7.80L127.92-7.80Q125.12-9.64 124.48-10.36L124.48-10.36L124.48-10.36Q123.40-11.64 123.40-13.24L123.40-13.24L123.40-13.24Q123.40-14.84 124.16-16.36L124.16-16.36L124.16-16.36Q124.92-17.88 126.32-18.96L126.32-18.96L126.32-18.96Q129.24-21.20 134.32-21.20L134.32-21.20L134.32-21.20Q136.92-21.20 138.46-20.16L138.46-20.16L138.46-20.16Q140-19.12 140-17.36L140-17.36L140-17.36Q140-15.60 138.94-14.60L138.94-14.60L138.94-14.60Q137.88-13.60 135.96-13.60L135.96-13.60L135.96-13.60Q134.64-13.60 134-14.04ZM165.92-12.88L174.00-13.60L174.00-13.60Q171.12-7.28 171.12 0.04L171.12 0.04L171.12 0.04Q170.04 0.80 168.46 0.80L168.46 0.80L168.46 0.80Q166.88 0.80 165.88 0.06L165.88 0.06L165.88 0.06Q164.88-0.68 164.68-1.44L164.68-1.44L164.68-1.44Q163.68-0.40 162.06 0.20L162.06 0.20L162.06 0.20Q160.44 0.80 158.72 0.80L158.72 0.80L158.72 0.80Q157.00 0.80 155.50 0.24L155.50 0.24L155.50 0.24Q154.00-0.32 152.84-1.56L152.84-1.56L152.84-1.56Q150.28-4.28 150.28-9.44L150.28-9.44L150.28-9.44Q150.28-17.44 154.56-22.24L154.56-22.24L154.56-22.24Q158.96-27.20 166.76-27.20L166.76-27.20L166.76-27.20Q172.16-27.20 174.08-24.40L174.08-24.40L174.08-24.40Q174.68-23.52 174.68-22.46L174.68-22.46L174.68-22.46Q174.68-21.40 174.22-20.50L174.22-20.50L174.22-20.50Q173.76-19.60 173.04-18.88L173.04-18.88L173.04-18.88Q171.32-17.28 169.20-17.28L169.20-17.28L169.20-17.28Q168.36-17.28 167.56-17.56L167.56-17.56L167.56-17.56Q167.72-18.76 167.72-20.16L167.72-20.16L167.72-20.16Q167.72-21.56 167.62-22.20L167.62-22.20L167.62-22.20Q167.52-22.84 167.28-23.36L167.28-23.36L167.28-23.36Q166.76-24.44 165.62-24.44L165.62-24.44L165.62-24.44Q164.48-24.44 163.22-23.22L163.22-23.22L163.22-23.22Q161.96-22 160.96-20L160.96-20L160.96-20Q158.76-15.52 158.76-10.12L158.76-10.12L158.76-10.12Q158.76-7.64 159.72-5.88L159.72-5.88L159.72-5.88Q160.76-3.96 162.60-3.96L162.60-3.96L162.60-3.96Q163.24-3.96 163.82-4.28L163.82-4.28L163.82-4.28Q164.40-4.60 164.64-4.84L164.64-4.84L165.92-12.88ZM177.70-1.20L177.70-1.20L177.70-1.20Q176.76-2.24 176.34-3.88L176.34-3.88L176.34-3.88Q175.92-5.52 175.92-8.20L175.92-8.20L175.92-8.20Q175.92-10.88 176.84-13.32L176.84-13.32L176.84-13.32Q177.76-15.76 179.44-17.52L179.44-17.52L179.44-17.52Q182.88-21.20 188.56-21.20L188.56-21.20L188.56-21.20Q190.60-21.20 192.08-20.52L192.08-20.52L198.92-21.20L195.96-5.60L195.96-5.60Q195.84-5.12 195.84-4.24L195.84-4.24L195.84-4.24Q195.84-3.36 196.38-2.80L196.38-2.80L196.38-2.80Q196.92-2.24 197.72-2.16L197.72-2.16L197.72-2.16Q197.32-0.80 195.86 0L195.86 0L195.86 0Q194.40 0.80 192.76 0.80L192.76 0.80L192.76 0.80Q191.12 0.80 190.02 0.18L190.02 0.18L190.02 0.18Q188.92-0.44 188.60-1.48L188.60-1.48L188.60-1.48Q187.96-0.48 186.60 0.16L186.60 0.16L186.60 0.16Q185.24 0.80 183.42 0.80L183.42 0.80L183.42 0.80Q181.60 0.80 180.12 0.32L180.12 0.32L180.12 0.32Q178.64-0.16 177.70-1.20ZM186.14-17.44L186.14-17.44L186.14-17.44Q185.68-16.72 185.28-15.50L185.28-15.50L185.28-15.50Q184.88-14.28 184.22-11.02L184.22-11.02L184.22-11.02Q183.56-7.76 183.56-5.44L183.56-5.44L183.56-5.44Q183.56-3.12 183.92-2.44L183.92-2.44L183.92-2.44Q184.28-1.76 184.92-1.76L184.92-1.76L184.92-1.76Q186.20-1.76 187.14-2.98L187.14-2.98L187.14-2.98Q188.08-4.20 188.44-6.36L188.44-6.36L190.56-18.08L190.56-18.08Q189.72-18.80 188.74-18.80L188.74-18.80L188.74-18.80Q187.76-18.80 187.18-18.48L187.18-18.48L187.18-18.48Q186.60-18.16 186.14-17.44ZM210.64-2.20L210.64-2.20L210.64-2.20Q209.40 0.80 205.44 0.80L205.44 0.80L205.44 0.80Q203.44 0.80 202.16-0.60L202.16-0.60L202.16-0.60Q201.12-1.76 201.12-3.08L201.12-3.08L201.12-3.08Q201.12-6.08 202.52-12.64L202.52-12.64L205.44-28L213.56-28.80L209.68-8.56L209.68-8.56Q209.00-5.60 209.00-4.56L209.00-4.56L209.00-4.56Q209.00-2.28 210.64-2.20ZM223.60-2.20L223.60-2.20L223.60-2.20Q222.36 0.80 218.40 0.80L218.40 0.80L218.40 0.80Q216.40 0.80 215.12-0.60L215.12-0.60L215.12-0.60Q214.08-1.76 214.08-3.08L214.08-3.08L214.08-3.08Q214.08-6.08 215.48-12.64L215.48-12.64L218.40-28L226.52-28.80L222.64-8.56L222.64-8.56Q221.96-5.60 221.96-4.56L221.96-4.56L221.96-4.56Q221.96-2.28 223.60-2.20ZM243.20-6.76L243.20-6.76L243.20-6.76Q244.20-6.08 244.20-4.58L244.20-4.58L244.20-4.58Q244.20-3.08 243.44-2.12L243.44-2.12L243.44-2.12Q242.68-1.16 241.44-0.52L241.44-0.52L241.44-0.52Q238.88 0.80 236.12 0.80L236.12 0.80L236.12 0.80Q233.36 0.80 231.74 0.20L231.74 0.20L231.74 0.20Q230.12-0.40 229.04-1.52L229.04-1.52L229.04-1.52Q226.92-3.64 226.92-7.52L226.92-7.52L226.92-7.52Q226.92-13.56 230.20-17.24L230.20-17.24L230.20-17.24Q233.72-21.20 239.84-21.20L239.84-21.20L239.84-21.20Q243.64-21.20 245.52-19.60L245.52-19.60L245.52-19.60Q246.92-18.40 246.92-16.44L246.92-16.44L246.92-16.44Q246.92-9.40 234.76-9.40L234.76-9.40L234.76-9.40Q234.60-8.36 234.60-7.48L234.60-7.48L234.60-7.48Q234.60-5.64 235.42-4.94L235.42-4.94L235.42-4.94Q236.24-4.24 237.76-4.24L237.76-4.24L237.76-4.24Q239.28-4.24 240.90-4.94L240.90-4.94L240.90-4.94Q242.52-5.64 243.20-6.76ZM235.04-11.12L235.04-11.12L235.04-11.12Q237.88-11.12 239.52-12.88L239.52-12.88L239.52-12.88Q241.16-14.56 241.16-17.24L241.16-17.24L241.16-17.24Q241.16-18.16 240.82-18.66L240.82-18.66L240.82-18.66Q240.48-19.16 239.80-19.16L239.80-19.16L239.80-19.16Q239.12-19.16 238.54-18.90L238.54-18.90L238.54-18.90Q237.96-18.64 237.36-17.76L237.36-17.76L237.36-17.76Q235.88-15.76 235.04-11.12ZM260.80-11.24L260.80-11.24L260.80-11.24Q262.24-13.80 262.24-16.40L262.24-16.40L262.24-16.40Q262.24-18.12 261.00-18.12L261.00-18.12L261.00-18.12Q260.04-18.12 259.04-16.48L259.04-16.48L259.04-16.48Q258.00-14.84 257.68-12.72L257.68-12.72L255.60 0L247.32 0.80L251.40-20.40L258.00-21.20L257.28-17.16L257.28-17.16Q259.24-21.20 263.64-21.20L263.64-21.20L263.64-21.20Q265.96-21.20 267.22-20L267.22-20L267.22-20Q268.48-18.80 268.48-16.34L268.48-16.34L268.48-16.34Q268.48-13.88 266.86-12.32L266.86-12.32L266.86-12.32Q265.24-10.76 262.48-10.76L262.48-10.76L262.48-10.76Q261.28-10.76 260.80-11.24ZM281.84-4.52L281.84-4.52L281.84-4.52Q279.76-2.36 275.96-2.36L275.96-2.36L275.96-2.36Q271.20-2.36 270.20-5.84L270.20-5.84L270.20-5.84Q269.88-6.88 269.88-8.04L269.88-8.04L269.88-8.04Q269.88-9.20 270.12-10.40L270.12-10.40L272.00-20.40L280.12-21.20L277.92-9.56L277.92-9.56Q277.84-9.04 277.72-8.48L277.72-8.48L277.72-8.48Q277.60-7.92 277.60-7.34L277.60-7.34L277.60-7.34Q277.60-6.76 277.80-6.38L277.80-6.38L277.80-6.38Q278.00-6 278.28-5.76L278.28-5.76L278.28-5.76Q278.76-5.44 279.62-5.44L279.62-5.44L279.62-5.44Q280.48-5.44 281.22-6.48L281.22-6.48L281.22-6.48Q281.96-7.52 282.32-9.32L282.32-9.32L284.52-20.40L292.40-21.20L289.40-5.48L289.40-5.48Q287.92 2.20 284.88 5.24L284.88 5.24L284.88 5.24Q283.32 6.80 281.30 7.42L281.30 7.42L281.30 7.42Q279.28 8.04 276.68 8.04L276.68 8.04L276.68 8.04Q272.48 8.04 270.08 6.72L270.08 6.72L270.08 6.72Q267.68 5.40 267.68 3.20L267.68 3.20L267.68 3.20Q267.68 1.56 268.92 0.62L268.92 0.62L268.92 0.62Q270.16-0.32 272.08-0.32L272.08-0.32L272.08-0.32Q273.76-0.32 275.04 0.40L275.04 0.40L275.04 0.40Q275.80 0.84 276.16 1.40L276.16 1.40L276.16 1.40Q275.24 2.20 275.24 3.52L275.24 3.52L275.24 3.52Q275.24 5.28 276.84 5.28L276.84 5.28L276.84 5.28Q279.48 5.28 281.00-0.80L281.00-0.80L281.00-0.80Q281.44-2.60 281.84-4.52Z" fill="url(#editing-gradow-gradient)"></path></g></g><style>text {
  font-size: 64px;
  font-family: Arial Black;
  dominant-baseline: central;
  text-anchor: middle;
}</style></svg>